<svg xmlns="http://www.w3.org/2000/svg" xmlns:xlink="http://www.w3.org/1999/xlink" viewBox="0 0 202.02 25.52"><defs><style>.cls-1{fill:url(#linear-gradient);}</style><linearGradient id="linear-gradient" x1="1.48" y1="16.09" x2="204.47" y2="42.51" gradientTransform="matrix(0.98, 0.02, 0.08, 0.56, -1.47, -1.3)" gradientUnits="userSpaceOnUse"><stop offset="0" stop-color="#feb625"/><stop offset="0.23" stop-color="#fd9e20"/><stop offset="0.51" stop-color="#fc861c"/><stop offset="0.77" stop-color="#fb7819"/><stop offset="1" stop-color="#fb7318"/></linearGradient></defs><title>Asset 3</title><g id="Layer_2" data-name="Layer 2"><g id="OBJECTS"><path class="cls-1" d="M4.64,24.34h0Zm196.69-2.83c0-.08.35-.14.5-.19-.86-.23.12-.71-1.3-.9l.22.33-.18,0-2-.93c.44-.11.62-.27-.18-.47l-.19.22-1.32-.47.92,0-1.9-1,.83-.13c-1.25-.54-2.41-1-3.63-1.55-.9-.36-1.87-.7-2.83-1.05-.73-.26-1.44-.54-2.25-.77s-1.53-.34-2.49-.55c.13.15.15.28.34.38a4.61,4.61,0,0,0,.83.24,49,49,0,0,1,5.37,1.58c.88.34,1.86.65,2.7,1,.35.15.89.33.85.57a3.76,3.76,0,0,1-1.67-.44,6,6,0,0,0-.87-.37c-1-.32-2-.61-2.88-.94-2.12-.76-4.63-1.27-7-1.86-1-.25-2.1-.42-3-.69a4.63,4.63,0,0,0-1.66-.27,3.26,3.26,0,0,1-.36-.07l-.23-.42c.59.11,1,.17,1.32.25l5,1.1c.49.11.63.07.67-.18-1-.13-1.19-.2-1.5-.6s-.93-.55-1.93-.5a3.05,3.05,0,0,1-.67,0,3.47,3.47,0,0,0-1.69,0c-1-.48-1.05-.58-.14-.86a5.6,5.6,0,0,0-.72-.1c-.46,0-.9,0-1.37,0s-.81-.13-1.09.06a1.38,1.38,0,0,1-1-.09c-.32-.14,0-.2.23-.26a.94.94,0,0,0,.2-.12l-3.7-.82a7.69,7.69,0,0,1-2.46-.19l1-.54c-.88,0-.66-.22-.65-.42l-1.88,0,.52.28-.94.37c-1.07-.12-1.73-.33-1.64-.73-.65-.06-1.21-.09-1.75-.16s-.56-.32-1.05-.43c1,.1,2.1.47,3,.12a11.4,11.4,0,0,0-2.58-.69c-1.08-.31-2.46-.47-3.72-.69S157.1,7.24,156,7c-1.36-.25-2.69-.54-4.13-.7-.68-.08-1.35-.2-1.71-.26l-.86.24a8.26,8.26,0,0,0-.8-.48,3.69,3.69,0,0,0-.6-.16h0a4.76,4.76,0,0,1-2.44-.77l-.07.27a1,1,0,0,1-.87-.26,4.27,4.27,0,0,1-2.51-.3l.8,0c-1.15-.16-2.28-.29-3.41-.42-2.11-.24-4.21-.5-6.32-.73s-4.38-.45-6.57-.66c-1.26-.12-2.52-.21-3.78-.3l-3.64-.25c-1.8-.12-3.6-.24-5.39-.34-1.54-.08-3.06-.12-4.6-.19-.56,0-1.17-.15-1.68-.13a25.5,25.5,0,0,1-2.61-.07c-2.41-.16-4.78-.21-7.14-.24-1,0-2.09-.06-3.13-.07-1.92,0-3.83,0-5.74,0q-3.26,0-6.47.07c-2,0-4,.1-6.06.16-.75,0-1.5.08-2.22.14-1.1.1-2.13.26-3.26.31a3.58,3.58,0,0,1-2-.11l-2.58.2a4.31,4.31,0,0,0-1.12.14c-.17.15-.41.11-.72.08a16.7,16.7,0,0,0-2.59.1.84.84,0,0,0-.51.17c-.18.18-.45.19-.92.06s-1-.16-1,0c-.26.42-1.56.19-2.14.39a10,10,0,0,0-2.28.07,30,30,0,0,0-4.71.63,9.08,9.08,0,0,1-1.09.07c-.83,0-1.76,0-2.11.34a1.06,1.06,0,0,1-.85.12,1.52,1.52,0,0,0-.8.07,12.65,12.65,0,0,1-1.25.24,6.37,6.37,0,0,0-1.48.3,2.43,2.43,0,0,1-1.66.14,2.83,2.83,0,0,1-2,.18c-.11.21-.3.33-1,.24a4,4,0,0,0-.83.1l.69.19a37.33,37.33,0,0,1-3.71.6l-.84-.44-1,.26.45.25-1-.11h-.07a4.32,4.32,0,0,0-1.12.3c-.14.1.19.32.33.52a5.43,5.43,0,0,1-2.1.49,1.1,1.1,0,0,0-.47.08c-.37.28-.85.14-1.39,0-.17-.06-.39-.09-.59-.14-.16.12,0,.33-.68.24a1.37,1.37,0,0,0-.68.12c.11.22-.25.19-.6.19l-1.14,0,.31-.17-.22-.08L22.09,8l.2.1L23,8c-.7.18-.57.43,0,.71-.72.2-.73.2-1.92,0l-2.37.76c-.3.09-.68.15-1,.24-.93.32-1.83.65-2.73,1-1.74.63-3.43,1.28-5.21,1.89-.6.2-.64.56-1.45.7,0,0,.05.11.06.16s0,.14-.05.19a3.72,3.72,0,0,1-2.08.69,1.28,1.28,0,0,0-.28.09l.44.28a2.78,2.78,0,0,0-.59,0,8.11,8.11,0,0,1-1.59.9c-.18.07,0,.25-.11.36a2,2,0,0,1-.36.34l-1-.22c-.06.23-.34.45-.11.59.43.28.11.38-.18.53a6.26,6.26,0,0,0-.8.56l.25.06c.21-.11.41-.22.63-.32a1.12,1.12,0,0,1,1.1.07c.11.06.13.14.19.21-.58-.05-1.12-.05-.74.2s.24.4.05.58-.69.37-.81.6c-.23.43-1,.72-1.57,1.06s-.84.62-.84,1c1,.25,1.69.28,1.73.05.1-.5,1.23-.67,2-1a.21.21,0,0,1,0,.26c-.07.14-.26.28-.17.43a6.37,6.37,0,0,0,1,.19c0,.34-.35.59-.95.78-.34.12-.54.23-.56.42a2.07,2.07,0,0,1-.24.53s0,0,.09.1l.71,0,1,.51,1.48.07c.14.67.11.69-1.47.77.26.16.42.3.4.49s-.4.44.16.69c.54,0,.37-.22.45-.35s.17-.57,1.09-.67A1.64,1.64,0,0,0,7.94,24a1.17,1.17,0,0,1,.44-.36A22.76,22.76,0,0,1,11,22.46c.66-.24,1-.49.81-.86,1.11.07,1.11.07,1.07.49L14.11,22c-.65.3-.45.7-1.46.77-.08,0-.09.07-.14.11l-1,.66a5.07,5.07,0,0,0-.66.46c-.07.07,0,.21.15.26.44.15.31.28.05.33A6.38,6.38,0,0,1,10,24.55l-.55.56,1.51.06a20.87,20.87,0,0,1,1.86-1.07,5.11,5.11,0,0,1,2.06-.73,1.59,1.59,0,0,0,.92-.34A2,2,0,0,1,17,22.77a2.46,2.46,0,0,0,.78-.09c.65-.28,1.24-.57,1.87-.86a3,3,0,0,1,.43-.05l.48.36-.5.05-.21.54.77-.17c0,.22,0,.22-.65.24.52.22-.08.3-.3.49l2.93.27,1-.51-1,.06c.1-.12.1-.22.21-.23a6.28,6.28,0,0,0,1.88-.5,15.67,15.67,0,0,0,3.17-1.15,1.39,1.39,0,0,1,.43-.12c.64-.12,1.39-.2,1.91-.36.79-.25,1.56-.49,2.44-.7,1.79-.43,3.44-.92,5.42-1.26a23.54,23.54,0,0,0,2.58-.58,15.66,15.66,0,0,1,2.8-.44,8,8,0,0,0,.91-.13,19.49,19.49,0,0,1,2.36-.54,7.33,7.33,0,0,1,2.67-.36l.11,0,2.23-.47.9-.15c1.07-.15,2.17-.29,3.21-.46,1.5-.25,2.94-.54,4.43-.8.76-.13,1.61-.21,2.39-.32a11.14,11.14,0,0,1,1.35-.25A23,23,0,0,1,66.78,14h.11l3.76-.6c.57-.08,1.16-.17,1.77-.23s1.34-.11,2-.17L79,12.53c.76-.08,1.46-.21,2.25-.25a25.37,25.37,0,0,0,4.21-.43,2.33,2.33,0,0,1,.55,0,9,9,0,0,1,2.36,0,2.67,2.67,0,0,0,.4,0l.86-.06c.77,0,1.59-.07,2.3-.15,1.88-.23,4-.23,6-.31,1.49-.05,3,0,4.55-.06,2.69-.07,5.43-.06,8.17,0,3.64,0,7.3.1,11,.17,1.2,0,2.41.07,3.63.13l7.17.42c1.45.08,2.9.13,4.35.19.68,0,1.36.05,2,.1s1.11.12,1.67.16c1,.08,2.09.09,3.09.22.73.1,1.34.07,2,.11s1.35.17,2,.24c.86.09,1.72.15,2.57.24s1.47.2,2.19.24c1.4.07,2.75.28,4.12.45s2.82.37,4.23.57c3.25.44,6.51.86,9.71,1.4,2.56.44,5.18.8,7.76,1.2.84.13,1.65.28,2.48.42.62.11,1.25.26,1.88.31a5.86,5.86,0,0,1,2.38.39,1.81,1.81,0,0,0,.34.07l2.45.42a1.44,1.44,0,0,0,.46,0,1.73,1.73,0,0,1,1.23.17c.77.27,1.45.59,2.29.82,2.25.63,4.36,1.31,6.31,2.06a3.76,3.76,0,0,0,.49,0c-.23-.15-.38-.36-.58-.38-.62-.07-.71-.19-.54-.33s.67-.11,1,0,.94.34,1.36.52a3.68,3.68,0,0,0,1.68.53l.62-.27C201.73,21.69,201.32,21.58,201.33,21.51ZM4.18,16.88l-.32-.05c-.29-.22.11-.28.69-.31Zm2,6.68c0-.2,0-.21.86-.31C7,23.47,6.76,23.58,6.17,23.56Zm2.41-8.88-.22-.07c.22-.34.76-.59,1.7-.65Zm2.17-1.17-.15-.06.38-.18.29.13Zm4.19,8.34-.54-.19.24-.1.56.18Zm6.61,1.41a.32.32,0,0,1-.21-.1s.12,0,.26-.09l.24.17A1,1,0,0,1,21.55,23.26ZM31.08,7.71a1.61,1.61,0,0,1-.52.09.88.88,0,0,1-.42-.16c0-.07.07-.16.21-.21s.35-.08,1.23,0A4.66,4.66,0,0,1,31.08,7.71Zm.61-1.11,0-.39L32,6.6ZM139.12,4.4l0-.09c.52.1,1.12,0,1.56.3Zm14.17,3.19c-.24-.07-.47-.15-.73-.21s-.57-.1-.94-.16l.55-.31,1.26.62Zm2,0,.67-.17C156.1,7.71,155.94,7.78,155.24,7.64Zm14.32,3.49c.42.17,0,.27-.14.46l-1-.57A7.72,7.72,0,0,1,169.56,11.13Zm-2.74-.23c.63-.06.93,0,1.06.22Zm1.48.53-.39-.18.19,0,.37.19Zm1,3.44a2,2,0,0,1,.49-.08c.7.11,1.39.24,2.21.38A8.19,8.19,0,0,1,169.35,14.87Zm3.38-3.51-.35-.29h.41l.19.29Zm2.09,1.17-.63-.14.08-.08.68.13Zm1.84.22-.72-.1,0-.07a2.17,2.17,0,0,1,.44,0,1.74,1.74,0,0,1,.39.11Zm1,.49c-.49-.18-.62-.3-.12-.43C177.91,13,178,13.1,177.62,13.24Zm.88,3.47c-.34,0-.63,0-.6-.26l.79.17C178.58,16.67,178.55,16.71,178.5,16.71Zm1.28.18.22-.25a3.09,3.09,0,0,0-1.8-.22,1.63,1.63,0,0,1,.33-.21c1.07.16,2.13.32,3.18.5a1.31,1.31,0,0,1,.39.2A8.23,8.23,0,0,1,179.78,16.89Zm5.74.82a9.31,9.31,0,0,0-1,0,5.8,5.8,0,0,0-2.28-.81c2.28.12,3.62.4,4.54,1A11.55,11.55,0,0,0,185.52,17.71Zm2,.57c0-.19-.05-.33-.08-.49a1.79,1.79,0,0,1,1.08.33Zm1.72.23a4.45,4.45,0,0,1-.65-.38l1.7.28A.89.89,0,0,1,189.24,18.51Zm7.88,2.34c-.2-.05-.39-.08-.53-.13-.86-.31-1.73-.61-2.56-.93a1.65,1.65,0,0,1-.46-.33l.19,0c1,.29,2,.58,3,.9C197.05,20.45,197.4,20.65,197.12,20.85ZM82.89.29A12.69,12.69,0,0,1,85.05.21c1.69,0,3.37,0,5.06-.06,1,0,2,0,3,0l3.68,0c.48,0,.94,0,1.42,0l7.35.22-.06-.12c-8-.35-15.72-.34-23.37-.1A2.11,2.11,0,0,0,82.89.29Zm-2-.06a15.18,15.18,0,0,0-3.67.12A8.8,8.8,0,0,0,80.85.23ZM35.72,5.31c-1.74.14-1.81.18-1.47.59C35.65,6,35.12,5.47,35.72,5.31Zm91.62-3.5V1.7c-1.2-.15-2.4-.24-3.59-.3v.09Zm-73.65.51.24-.12-.23-.08c-.64.1-.37.5-1,.6l2-.28ZM61,1.74c-.32-.26.19-.26.61-.3l.62-.11L62,1.23l-1.87.23.29.38A5.14,5.14,0,0,0,61,1.74Zm95.23,4.75-2.75-.4-.06.1,2.75.4ZM116.44.92l0-.08L114.09.67V.83ZM111.13.6l0-.09-2.22-.1.05.09ZM2.69,21.7l-.63.62C2.51,22.16,3.25,22.06,2.69,21.7ZM119.46,1.08,118,1A3,3,0,0,0,119.46,1.08ZM4.64,24.34h0Zm-1.11.27,1.1-.27-1-.2C3.62,24.3,3.59,24.41,3.53,24.61ZM166.66,9.08c-.41,0-.81-.05-.8.15l.85.25C166.69,9.33,166.68,9.21,166.66,9.08ZM122.29,1.36V1.25l-1.91-.12v.1Zm26.93,4.22,1.34.12A2.36,2.36,0,0,0,149.22,5.58ZM48.28,3.18l-1.38.08A1.61,1.61,0,0,0,48.28,3.18Zm-1.38.08h0l.93-.32C47,3,47,3,46.89,3.25h0ZM158.47,7l1.58.24A4.06,4.06,0,0,0,158.47,7ZM73.33.44,72.17.55C73,.61,73,.61,73.33.44ZM129.82,2l-.7-.1V2l.71,0ZM107.23.42l0-.07-.81,0,.07.12Zm-30.8,0s0,0,0-.08l-.63,0,.06.1ZM177,11.3l-.22-.1-.52.15.23.11ZM113.33.73l0-.06-.65-.06v.1ZM147.86,5.3l0,.36C148,5.55,148.25,5.46,147.86,5.3ZM64.36,1.11c-.3.09-.3.09.11.28Zm-5.29.8h0Zm0-.23,0,.23C59.48,1.89,59.48,1.88,59.09,1.68Zm-.77,0c-.65.09-.66.09-.32.2ZM49.21,2.82l-.06,0-.5,0,.08.07Zm-24,4.48-.15-.07-.52.12.22.09Zm-24,11.23L.9,18.4s-.2,0-.2.06.06.09.13.18ZM162.7,7.66v0l-.55-.05,0,0ZM58,1.85h0Zm1,.08-1-.08A1.12,1.12,0,0,0,59,1.93Zm0,0h0ZM185.1,13.73l-.46-.1-.07.06.47.09ZM42.79,4.16c.09,0,.21,0,.22-.06S42.92,4,42.84,4s-.23,0-.25.08S42.73,4.16,42.79,4.16ZM26.23,7.06,26.15,7l-.38.08.09,0Z"/></g></g></svg>